Coordinates
version=1
nRows=49
nColumns=12
inDegrees=yes

Units are S.I. units (second, meters, Newtons, ...)
Angles are in degrees

endheader
time	SC_y	SC_z	SC_x	AC_y	AC_z	AC_x	GH_y	GH_z	GH_yy	EL_x	PS_y
       0.0              -11.19          15.53          18.34          31.35         -6.643          11.03         -138.9          33.33          7.999          96.05          92.06
   0.03864              -11.19          15.53          18.33          31.35         -6.644          11.03         -138.8          33.33          8.022          96.05          92.06
   0.07727               -11.2          15.53          18.33          31.35         -6.644          11.02         -138.8          33.32          8.046          96.05          92.05
    0.1159               -11.2          15.53          18.33          31.35         -6.644          11.02         -138.8          33.32          8.071          96.06          92.04
    0.1545               -11.2          15.52          18.33          31.35         -6.644          11.02         -138.8          33.31          8.098          96.06          92.04
    0.1932              -11.21          15.52          18.33          31.36         -6.644          11.01         -138.7           33.3          8.127          96.06          92.03
    0.2318              -11.21          15.52          18.33          31.36         -6.644          11.01         -138.7           33.3          8.157          96.06          92.02
    0.2705              -11.22          15.52          18.32          31.36         -6.645           11.0         -138.6          33.29           8.19          96.07          92.01
    0.3091              -11.22          15.51          18.32          31.36         -6.645          10.99         -138.6          33.28          8.225          96.07           92.0
    0.3477              -11.23          15.51          18.32          31.36         -6.645          10.99         -138.6          33.27          8.263          96.08          91.99
    0.3864              -11.23           15.5          18.32          31.37         -6.645          10.98         -138.5          33.26          8.303          96.08          91.98
     0.425              -11.24           15.5          18.31          31.37         -6.646          10.97         -138.5          33.25          8.347          96.09          91.97
    0.4636              -11.24           15.5          18.31          31.37         -6.646          10.97         -138.4          33.24          8.393          96.09          91.96
    0.5023              -11.25          15.49          18.31          31.38         -6.646          10.96         -138.3          33.23          8.444           96.1          91.95
    0.5409              -11.26          15.49           18.3          31.38         -6.647          10.95         -138.3          33.22          8.499           96.1          91.94
    0.5796              -11.27          15.48           18.3          31.38         -6.647          10.94         -138.2           33.2          8.558          96.11          91.92
    0.6182              -11.27          15.48           18.3          31.39         -6.647          10.93         -138.1          33.19          8.623          96.12           91.9
    0.6568              -11.28          15.47          18.29          31.39         -6.648          10.92         -138.0          33.17          8.693          96.13          91.89
    0.6955              -11.29          15.46          18.29           31.4         -6.648           10.9         -138.0          33.15           8.77          96.13          91.87
    0.7341              -11.31          15.46          18.28           31.4         -6.649          10.89         -137.8          33.13          8.854          96.14          91.85
    0.7727              -11.32          15.45          18.28          31.41          -6.65          10.88         -137.7          33.11          8.947          96.15          91.82
    0.8114              -11.33          15.44          18.27          31.42          -6.65          10.86         -137.6          33.08          9.049          96.17           91.8
      0.85              -11.35          15.43          18.26          31.42         -6.651          10.84         -137.5          33.06          9.161          96.18          91.77
    0.8887              -11.36          15.42          18.25          31.43         -6.652          10.82         -137.3          33.03          9.285          96.19          91.74
    0.9273              -11.38           15.4          18.25          31.44         -6.653           10.8         -137.2          32.99          9.424          96.21           91.7
    0.9659               -11.4          15.39          18.24          31.45         -6.654          10.77         -137.0          32.96          9.578          96.22          91.66
     1.005              -11.43          15.37          18.23          31.46         -6.655          10.74         -136.8          32.92          9.751          96.24          91.62
     1.043              -11.45          15.36          18.21          31.47         -6.656          10.71         -136.5          32.87          9.946          96.27          91.57
     1.082              -11.48          15.34           18.2          31.49         -6.657          10.67         -136.3          32.82          10.17          96.29          91.52
      1.12              -11.52          15.31          18.18          31.51         -6.659          10.63         -136.0          32.76          10.41          96.32          91.45
     1.159              -11.55          15.29          18.17          31.52         -6.661          10.59         -135.7          32.69           10.7          96.35          91.38
     1.198               -11.6          15.26          18.15          31.55         -6.663          10.53         -135.3          32.61          11.03          96.39           91.3
     1.236              -11.65          15.22          18.12          31.57         -6.665          10.47         -134.8          32.52           11.4          96.43           91.2
     1.275              -11.71          15.19          18.09           31.6         -6.668           10.4         -134.3          32.42          11.84          96.48          91.09
     1.314              -11.78          15.14          18.06          31.63         -6.672          10.31         -133.7          32.29          12.36          96.54          90.97
     1.352              -11.86          15.08          18.02          31.67         -6.676          10.21         -133.0          32.15          12.96          96.61          90.81
     1.391              -11.95          15.02          17.98          31.72          -6.68          10.09         -132.1          31.98          13.68          96.69          90.63
      1.43              -12.07          14.94          17.93          31.77         -6.686           9.95         -131.1          31.77          14.54          96.78          90.42
     1.468              -12.21          14.85          17.86          31.84         -6.693          9.778         -129.8          31.52          15.58           96.9          90.15
     1.507              -12.38          14.73          17.78          31.93         -6.701          9.568         -128.3          31.22          16.86          97.04          89.83
     1.545              -12.59          14.59          17.68          32.03         -6.711          9.308         -126.4          30.84          18.43          97.22          89.44
     1.584              -12.86          14.41          17.56          32.16         -6.724          8.984         -124.1          30.38          20.39          97.44          88.94
     1.623              -13.19          14.19          17.41          32.32          -6.74          8.576         -121.2          29.79          22.86          97.72          88.32
     1.661              -13.61          13.91          17.21          32.52          -6.76          8.057         -117.4          29.04           26.0          98.07          87.53
       1.7              -14.15          13.54          16.96          32.79         -6.786          7.393         -112.6          28.08          30.02          98.52          86.52
     1.739              -14.85          13.08          16.63          33.12         -6.819          6.541         -106.5          26.85          35.17          99.11          85.23
     1.777              -15.73          12.48          16.22          33.55         -6.862          5.452         -98.64          25.27          41.76          99.85          83.57
     1.816              -16.85          11.74           15.7           34.1         -6.916          4.083         -88.78          23.29          50.04          100.8          81.48
     1.855               -18.2          10.82          15.07          34.75         -6.981          2.415         -76.75          20.88          60.13          101.9          78.95
